<?xml version="1.0" standalone="no"?>
<!DOCTYPE svg PUBLIC "-//W3C//DTD SVG 20010904//EN"
 "http://www.w3.org/TR/2001/REC-SVG-20010904/DTD/svg10.dtd">
<svg version="1.0" xmlns="http://www.w3.org/2000/svg"
 width="1536.000000pt" height="1024.000000pt" viewBox="0 0 1536.000000 1024.000000"
 preserveAspectRatio="xMidYMid meet">

<g transform="translate(0.000000,1024.000000) scale(0.100000,-0.100000)"
fill="#000000" stroke="none">
<path d="M10515 10136 c-16 -6 -41 -18 -55 -27 -14 -9 -59 -36 -100 -59 -381
-217 -886 -692 -1276 -1202 -91 -119 -266 -377 -334 -493 -29 -49 -59 -100
-66 -111 l-13 -22 -93 29 c-200 63 -382 92 -726 115 -251 16 -362 13 -690 -22
-199 -21 -279 -36 -444 -85 -79 -23 -152 -43 -163 -46 -16 -3 -25 5 -43 39
-64 123 -284 449 -397 588 -33 41 -68 88 -78 103 -32 50 -226 266 -377 421
-410 420 -859 747 -1047 763 -95 8 -116 -4 -165 -101 -49 -97 -123 -319 -172
-511 -145 -579 -164 -1239 -49 -1755 44 -203 132 -482 193 -615 26 -58 101
-228 107 -242 3 -7 -30 24 -73 68 -44 45 -104 101 -136 125 -84 65 -244 139
-423 195 -88 28 -207 66 -265 85 -227 75 -273 80 -331 41 -58 -39 -71 -124
-45 -292 18 -118 42 -207 73 -275 14 -30 29 -64 33 -75 16 -42 83 -130 139
-185 l59 -57 -9 -44 c-31 -164 12 -365 107 -490 65 -86 183 -174 275 -208 174
-63 263 -66 312 -11 22 25 27 40 27 83 0 57 -26 111 -57 121 -10 3 -49 12 -88
21 -178 40 -309 171 -341 340 -6 36 -6 38 17 32 13 -3 51 -16 84 -28 44 -17
82 -23 143 -24 83 0 84 0 114 34 28 31 30 38 26 93 -6 78 -27 98 -138 127
-137 36 -221 83 -320 181 -97 95 -145 171 -185 295 -14 43 -24 81 -23 85 4 10
407 -124 493 -164 160 -75 276 -174 355 -301 23 -38 51 -81 60 -95 21 -31 66
-160 75 -215 15 -92 22 -103 71 -111 48 -7 112 2 132 18 14 13 15 7 2 -26 -7
-19 -19 -26 -47 -31 -69 -11 -152 -38 -167 -54 -20 -22 -46 -99 -46 -136 0
-56 20 -105 50 -124 l29 -17 -26 -39 c-40 -59 -52 -74 -142 -167 -93 -97 -192
-167 -352 -252 -73 -38 -109 -64 -117 -81 -15 -32 -15 -95 -1 -132 14 -38 239
-260 313 -309 32 -21 70 -47 85 -56 l26 -18 -43 0 c-157 0 -189 -143 -66 -294
130 -160 188 -220 341 -348 273 -230 571 -408 938 -562 72 -30 159 -63 193
-72 35 -10 61 -20 60 -24 -2 -3 -48 -47 -103 -96 -267 -242 -463 -500 -646
-849 -129 -247 -198 -422 -264 -670 -126 -477 -132 -860 -19 -1158 64 -167
155 -286 309 -401 138 -104 278 -163 495 -206 299 -61 474 -69 1445 -66 462 2
1164 4 1560 6 1093 3 1289 26 1595 180 l60 30 112 -29 c158 -42 266 -59 464
-73 201 -14 442 -1 609 33 108 22 301 83 390 124 31 14 59 25 64 25 4 0 27 13
52 28 24 16 70 44 102 63 99 57 293 219 331 275 11 18 47 64 80 104 111 137
204 321 252 498 38 140 42 162 54 348 11 151 10 193 -9 394 -23 249 -61 434
-131 647 -86 258 -138 547 -119 661 36 220 42 246 85 330 24 48 57 105 73 127
17 22 41 56 54 75 13 19 46 54 73 78 27 24 60 53 74 66 14 12 51 42 83 66 32
24 63 52 69 63 5 11 8 51 6 89 -3 60 -7 72 -28 89 -58 44 -219 82 -425 100
-394 34 -756 -54 -1060 -256 -271 -180 -529 -511 -659 -843 -78 -197 -134
-414 -151 -577 -3 -33 -11 -100 -17 -149 -7 -65 -7 -115 1 -185 7 -53 16 -133
22 -179 5 -45 25 -149 44 -230 19 -81 42 -200 51 -265 16 -103 16 -131 5 -219
-7 -56 -22 -133 -35 -172 l-22 -70 -23 164 c-65 463 -245 941 -519 1375 -87
138 -141 208 -276 358 -93 103 -290 287 -308 287 -4 0 -8 5 -8 10 0 6 5 10 10
10 17 0 193 66 315 118 235 100 488 241 672 377 27 19 57 41 68 49 116 85 344
300 417 393 23 31 51 65 61 75 42 44 67 109 67 173 0 34 -6 69 -13 79 -14 19
-72 35 -125 36 -41 0 -35 11 31 54 107 70 326 287 348 343 15 41 11 119 -8
142 -10 11 -56 39 -103 62 -218 105 -381 240 -495 410 l-34 49 24 24 c31 31
41 102 26 172 -18 77 -54 106 -161 127 -73 15 -99 27 -100 47 0 3 38 3 84 2
104 -5 121 7 131 95 20 157 118 338 257 474 107 105 229 167 498 253 204 66
230 73 230 59 -1 -32 -35 -125 -71 -193 -95 -178 -241 -302 -424 -360 -128
-40 -140 -46 -152 -70 -15 -30 -17 -99 -3 -134 5 -14 24 -33 42 -42 45 -23
160 -14 254 20 39 14 74 26 76 26 13 0 -15 -101 -42 -157 -56 -113 -167 -193
-328 -234 -93 -24 -112 -44 -112 -117 0 -115 28 -138 156 -129 137 10 290 81
403 187 41 38 119 161 127 200 3 14 12 45 19 70 22 74 28 182 14 260 l-12 70
59 62 c72 76 92 104 138 192 53 101 84 205 101 333 18 137 19 183 4 234 -16
51 -48 79 -98 86 -49 7 -75 0 -336 -82 -110 -35 -238 -75 -284 -90 -46 -14
-102 -35 -125 -45 -22 -10 -57 -25 -77 -33 -65 -26 -182 -110 -258 -184 -41
-40 -75 -73 -77 -73 -2 0 17 46 42 101 147 332 239 654 280 979 22 181 36 439
29 555 -17 297 -58 614 -100 788 -120 486 -211 721 -295 764 -30 15 -104 15
-145 -1z m72 -432 c123 -364 188 -686 213 -1049 31 -447 -55 -933 -248 -1396
-46 -110 -181 -383 -249 -502 -115 -202 -119 -222 -82 -382 35 -149 35 -141 1
-153 -34 -11 -48 -1 -69 50 -35 80 -242 304 -343 370 -132 86 -262 141 -413
175 -106 23 -405 24 -513 1 -327 -71 -627 -307 -783 -617 -17 -33 -33 -61 -36
-61 -2 0 -19 6 -37 14 -18 8 -49 21 -68 29 -133 57 -417 71 -564 29 -43 -12
-112 -39 -153 -59 -40 -20 -75 -34 -77 -32 -2 2 -15 29 -29 59 -38 88 -131
222 -213 309 -123 131 -263 220 -436 280 -140 48 -227 61 -402 61 -202 0 -353
-33 -535 -116 -174 -80 -391 -290 -482 -466 -20 -39 -37 -45 -87 -32 -16 5
-21 11 -17 23 10 26 48 202 52 247 4 34 -4 56 -50 145 -266 511 -292 564 -375
795 -29 78 -60 177 -71 220 -11 43 -27 105 -36 136 -41 148 -66 353 -76 613
-11 273 -11 292 14 500 24 195 66 412 116 595 30 108 112 340 121 340 4 0 18
-8 31 -18 13 -10 49 -33 79 -51 251 -153 687 -557 994 -923 193 -231 474 -640
580 -846 39 -75 122 -90 248 -46 309 107 516 148 873 174 233 17 656 -19 875
-74 114 -29 237 -65 303 -90 73 -28 153 -34 179 -13 9 6 35 48 58 92 101 190
348 557 505 749 44 54 89 110 100 125 93 123 411 443 594 598 178 151 434 337
455 330 5 -2 29 -61 53 -133z m-1273 -3130 c37 -8 83 -20 100 -28 187 -83 222
-105 329 -205 181 -170 273 -338 316 -579 14 -76 16 -115 9 -172 -20 -171 -98
-365 -197 -491 -27 -35 -59 -76 -71 -92 -32 -40 -204 -165 -281 -203 -81 -40
-222 -80 -311 -88 -158 -15 -358 34 -506 122 -83 50 -241 195 -304 279 -101
137 -165 335 -168 524 -2 126 6 181 44 295 51 152 179 346 279 425 29 23 54
45 55 50 2 5 8 9 14 9 5 0 24 11 41 24 49 37 165 92 242 115 141 43 258 47
409 15z m-3019 -13 c308 -82 549 -314 661 -635 50 -145 64 -252 48 -374 -57
-433 -404 -783 -832 -842 -98 -13 -240 5 -360 46 -223 76 -444 273 -557 494
-34 66 -73 199 -86 289 -29 204 37 441 186 665 112 169 379 336 603 376 77 14
248 4 337 -19z m-1545 -98 c0 -58 -14 -52 -31 13 -24 90 -23 97 6 49 14 -22
25 -50 25 -62z m5738 17 c-12 -61 -13 -62 -20 -29 -5 24 -3 43 9 66 10 18 19
31 21 29 2 -2 -3 -32 -10 -66z m-2752 -505 c75 -14 211 -70 244 -100 13 -12
15 -29 7 -107 -17 -189 23 -461 90 -610 79 -179 170 -301 307 -416 189 -159
379 -240 612 -263 147 -14 334 -3 454 27 93 23 360 146 360 165 0 5 14 16 31
25 18 9 71 54 119 100 113 109 214 255 255 369 10 28 22 55 26 60 23 31 48
164 75 395 3 25 -4 109 -15 188 -12 79 -21 147 -21 152 0 9 55 30 80 30 10 0
20 -10 24 -22 10 -41 123 -235 183 -313 72 -96 177 -210 220 -239 17 -11 68
-47 114 -80 45 -32 94 -62 108 -65 l25 -7 -24 -22 c-14 -12 -54 -48 -90 -80
-100 -89 -152 -128 -235 -177 -86 -51 -271 -145 -325 -164 -102 -38 -129 -75
-117 -161 12 -94 69 -110 320 -90 87 7 160 11 163 8 5 -6 -180 -175 -278 -254
-396 -319 -989 -582 -1512 -669 -121 -20 -141 -27 -162 -60 -12 -19 -15 -41
-12 -91 5 -79 24 -100 103 -109 43 -6 233 20 296 40 14 5 70 -31 189 -120 73
-55 239 -214 319 -306 289 -333 526 -805 656 -1304 65 -247 83 -407 65 -570
-14 -133 -36 -201 -102 -322 -75 -135 -207 -262 -348 -333 -53 -27 -220 -84
-226 -77 -2 1 1 20 6 42 5 22 10 68 10 103 0 88 -16 102 -114 102 -104 0 -107
2 -101 64 10 89 37 347 49 451 l11 100 50 27 c81 45 172 68 300 79 66 5 129
11 140 14 32 7 55 56 55 118 0 46 -4 60 -28 85 -25 26 -37 31 -106 37 -85 8
-184 -4 -305 -36 -40 -11 -75 -18 -77 -16 -2 2 1 41 6 88 34 319 69 717 70
787 0 169 -49 269 -161 324 l-54 27 -1005 6 c-1286 9 -2691 -7 -2746 -30 -68
-28 -104 -64 -140 -138 -56 -118 -56 -109 12 -730 20 -180 34 -330 32 -333 -3
-3 -32 2 -64 10 -154 39 -340 44 -392 10 -36 -23 -52 -73 -45 -133 9 -76 28
-87 161 -96 172 -11 362 -68 376 -113 7 -20 27 -183 46 -364 6 -53 14 -127 19
-165 6 -47 5 -70 -3 -75 -6 -4 -39 -8 -72 -8 -84 0 -106 -18 -112 -93 -2 -31
1 -78 7 -103 7 -26 10 -48 8 -50 -5 -5 -150 39 -199 60 -166 71 -312 201 -394
353 -71 130 -101 256 -104 438 -2 102 22 310 40 355 5 14 19 68 29 120 70 342
298 830 531 1135 25 33 53 72 63 88 53 83 378 392 486 461 39 25 49 27 100 21
31 -3 87 -13 125 -22 40 -9 96 -13 134 -11 58 4 68 8 93 36 21 24 29 43 29 71
0 51 -25 110 -53 121 -12 5 -101 25 -197 44 -600 120 -1222 434 -1634 824 -81
76 -78 81 42 70 196 -17 306 -4 323 39 16 43 11 148 -9 173 -10 12 -63 39
-121 61 -199 75 -399 202 -573 365 -27 25 -48 46 -48 48 0 2 21 17 47 32 26
15 52 31 58 36 5 4 47 35 92 68 153 113 301 297 409 508 l48 94 40 -6 c22 -4
42 -9 44 -11 2 -2 -6 -77 -18 -167 l-21 -164 20 -150 c31 -231 97 -404 218
-563 149 -197 388 -357 626 -419 97 -26 114 -27 327 -26 213 1 230 2 310 27
147 44 192 65 295 133 118 78 109 70 210 171 169 168 264 345 314 581 24 111
33 313 18 409 l-8 52 70 40 c90 53 231 101 298 101 28 0 86 -7 129 -15z m4760
-1751 c18 -5 14 -12 -39 -67 -89 -92 -175 -234 -235 -387 -87 -222 -79 -687
18 -984 91 -281 142 -466 130 -466 -5 0 -26 21 -47 47 -20 27 -63 77 -93 113
-75 87 -112 137 -135 184 -24 46 -64 66 -134 66 -79 0 -112 -26 -155 -121 -37
-81 -76 -212 -76 -256 0 -35 -13 -28 -64 31 -43 51 -146 198 -146 209 0 3 -14
36 -31 74 -18 37 -45 124 -62 193 -36 150 -50 170 -127 178 -52 5 -76 -3 -133
-41 -46 -31 -230 -270 -286 -372 -29 -52 -55 -95 -58 -95 -9 0 8 200 22 275
27 138 65 284 85 330 5 11 19 46 31 78 55 153 201 396 321 536 185 216 367
343 614 425 88 30 139 41 279 60 39 6 294 -2 321 -10z m-1199 -1764 c44 -88
85 -153 141 -221 129 -159 284 -286 361 -296 47 -6 110 16 129 47 6 10 16 65
22 122 6 56 15 132 22 168 l11 64 31 -35 c60 -69 196 -224 214 -244 60 -68
149 -245 167 -333 22 -103 3 -220 -62 -397 -82 -223 -269 -458 -488 -614 -89
-63 -285 -164 -379 -195 -189 -64 -476 -103 -666 -91 -147 9 -379 45 -399 61
-2 2 12 23 31 46 50 61 93 134 117 198 32 82 46 104 120 180 37 38 79 86 93
107 76 114 99 158 132 254 57 167 70 363 39 584 -21 157 -21 187 7 270 46 140
164 368 244 470 l31 39 10 -29 c5 -17 37 -86 72 -155z m-2266 103 l334 -6 39
-39 39 -39 -7 -92 c-3 -50 -24 -267 -46 -482 -81 -795 -102 -1003 -113 -1122
l-10 -121 -116 -8 c-143 -9 -3157 -12 -3166 -2 -11 11 -44 277 -151 1238 -66
592 -65 582 -33 616 13 14 33 31 44 37 14 9 164 14 505 17 790 9 2321 11 2681
3z m-481 -2153 l855 -1 -27 -23 c-15 -13 -49 -29 -76 -35 -27 -6 -202 -13
-388 -17 -437 -9 -2066 -10 -2566 -2 -354 6 -390 8 -431 26 -88 39 -73 42 200
43 142 1 539 5 883 9 344 4 641 5 660 4 19 -2 420 -4 890 -4z"/>
<path d="M10075 8992 c-84 -36 -120 -65 -294 -236 -272 -266 -497 -563 -640
-841 -65 -126 -53 -209 39 -269 70 -46 184 -132 200 -151 8 -10 31 -28 52 -41
76 -48 248 -275 326 -429 63 -127 67 -130 155 -130 69 0 78 3 104 27 16 15 44
53 62 85 19 32 42 69 51 83 43 63 145 331 185 487 48 184 64 304 71 532 9 277
-18 553 -74 755 -21 78 -33 103 -54 119 -38 28 -129 33 -183 9z m19 -349 c11
-37 36 -196 47 -305 21 -206 -9 -484 -76 -713 -24 -84 -57 -178 -65 -190 -4
-5 -11 -21 -15 -33 -4 -13 -18 -49 -32 -80 l-24 -56 -23 40 c-40 72 -170 227
-265 317 -92 87 -216 187 -232 187 -18 0 -8 24 41 104 81 130 177 263 268 371
111 132 344 375 359 375 6 0 14 -8 17 -17z"/>
<path d="M4964 8985 c-51 -23 -70 -58 -98 -178 -41 -177 -55 -267 -67 -452
-30 -423 41 -811 210 -1155 63 -129 139 -254 173 -287 33 -32 112 -42 172 -21
34 11 45 23 78 83 21 39 45 85 53 103 8 18 24 45 35 60 12 15 39 51 60 81 80
110 320 340 421 403 14 9 42 32 62 51 35 33 37 37 37 101 0 58 -5 77 -40 144
-21 42 -52 95 -67 118 -15 22 -50 74 -78 115 -27 41 -88 123 -135 182 -47 60
-95 124 -107 142 -21 31 -304 319 -351 357 -189 152 -217 169 -286 167 -22 0
-55 -7 -72 -14z m296 -474 c180 -178 380 -427 499 -620 48 -78 50 -84 34 -97
-10 -7 -21 -14 -25 -14 -15 0 -186 -150 -259 -226 -72 -76 -164 -193 -204
-261 -11 -18 -23 -33 -26 -33 -4 0 -19 26 -34 58 -15 31 -33 71 -41 87 -37 78
-95 264 -119 380 -32 156 -53 497 -36 580 6 28 18 100 27 160 9 61 18 113 21
118 9 14 48 -17 163 -132z"/>
<path d="M9080 6238 c-204 -34 -341 -99 -468 -221 -126 -121 -219 -347 -209
-506 3 -57 9 -77 23 -88 21 -15 121 -17 159 -3 21 8 27 7 32 -8 72 -213 243
-318 486 -298 106 9 176 37 242 97 66 61 88 96 120 190 50 146 39 332 -26 461
-17 33 -28 62 -25 65 8 9 45 -19 124 -91 l72 -66 68 0 c105 0 140 37 126 134
-6 45 -13 57 -83 125 -111 111 -235 173 -396 201 -125 21 -159 23 -245 8z
m-57 -439 c26 -12 47 -47 47 -78 0 -9 -14 -30 -30 -46 l-31 -29 -33 18 c-63
34 -67 80 -10 125 31 25 27 24 57 10z"/>
<path d="M5903 6224 c-107 -16 -140 -27 -245 -81 -97 -49 -213 -149 -234 -200
-8 -18 -14 -53 -14 -79 0 -39 5 -51 35 -81 34 -34 38 -35 96 -31 57 4 62 7
117 61 32 31 63 57 69 57 7 0 16 6 20 13 10 16 76 57 91 57 6 0 0 -16 -13 -36
-32 -48 -71 -171 -79 -255 -14 -136 24 -299 90 -386 39 -51 131 -114 198 -135
50 -16 83 -19 186 -16 109 3 132 7 181 30 91 42 182 145 212 239 9 29 16 38
27 33 65 -27 165 -9 181 33 40 105 -35 360 -146 493 -25 30 -45 58 -45 61 0 9
-138 112 -191 143 -69 39 -153 65 -264 81 -117 17 -160 17 -272 -1z m429 -441
c34 -39 39 -61 23 -93 -23 -45 -60 -50 -97 -12 -35 34 -34 67 4 102 27 25 50
26 70 3z"/>
<path d="M7490 5064 c-137 -24 -234 -68 -294 -134 -34 -38 -36 -44 -36 -111 0
-115 13 -143 112 -241 48 -48 112 -102 143 -119 69 -39 88 -66 87 -124 -1 -52
-21 -95 -57 -124 -86 -67 -206 -47 -314 54 -62 57 -80 65 -145 65 -44 0 -61
-5 -83 -24 -26 -22 -28 -30 -28 -93 0 -55 4 -74 23 -100 35 -50 137 -123 216
-156 66 -28 80 -30 207 -31 l136 -1 84 42 83 41 41 -23 c75 -43 143 -58 255
-59 144 0 201 15 301 77 110 69 158 135 159 217 0 77 -27 111 -96 117 -62 6
-97 -10 -172 -78 -53 -49 -140 -89 -190 -89 -37 1 -100 31 -138 66 -26 24 -32
39 -38 93 -8 73 -8 74 84 127 83 49 169 136 215 219 45 79 55 148 30 202 -36
79 -117 139 -230 170 -49 14 -305 26 -355 17z"/>
<path d="M7539 1891 c-98 -18 -208 -101 -242 -183 -51 -122 -43 -273 20 -379
19 -32 39 -59 43 -59 5 0 21 -11 37 -24 53 -44 123 -59 252 -54 104 4 122 7
162 30 103 61 155 146 165 271 9 100 -9 194 -49 254 -18 27 -35 50 -39 51 -5
2 -26 19 -49 38 -22 18 -57 38 -77 44 -55 14 -171 20 -223 11z m152 -280 c58
-58 51 -120 -19 -166 -37 -25 -42 -25 -73 -12 -76 32 -101 88 -67 148 43 78
101 89 159 30z"/>
</g>
</svg>
