<?xml version="1.0" standalone="no"?>
<!DOCTYPE svg PUBLIC "-//W3C//DTD SVG 20010904//EN"
 "http://www.w3.org/TR/2001/REC-SVG-20010904/DTD/svg10.dtd">
<svg version="1.0" xmlns="http://www.w3.org/2000/svg"
 width="1536.000000pt" height="1024.000000pt" viewBox="0 0 1536.000000 1024.000000"
 preserveAspectRatio="xMidYMid meet">

<g transform="translate(0.000000,1024.000000) scale(0.100000,-0.100000)"
fill="#000000" stroke="none">
<path d="M10100 9409 c-355 -95 -851 -429 -1243 -839 -127 -133 -310 -349
-341 -403 -24 -43 -3 -42 -191 -13 -318 49 -689 38 -978 -29 -36 -8 -72 -17
-79 -20 -9 -4 -46 34 -100 102 -114 145 -257 300 -365 399 -372 341 -672 542
-944 636 -84 28 -107 32 -209 32 -109 1 -118 0 -169 -29 -138 -76 -245 -276
-340 -637 -65 -243 -99 -507 -108 -828 -10 -400 32 -770 123 -1071 l26 -86
-36 -78 c-45 -96 -96 -247 -131 -386 -64 -258 -123 -365 -271 -496 -123 -109
-143 -179 -86 -305 56 -125 158 -246 284 -340 63 -46 69 -53 52 -63 -72 -40
-106 -117 -85 -193 30 -114 216 -315 366 -395 28 -15 -87 -16 -1490 -17 -1327
0 -1528 -2 -1585 -16 -215 -50 -370 -247 -370 -470 0 -89 16 -156 146 -618
507 -1802 478 -1704 524 -1796 65 -129 176 -242 287 -292 27 -12 54 -35 72
-62 70 -101 188 -179 311 -205 42 -9 1080 -11 4315 -9 4746 4 4316 -3 4620 72
586 144 1060 518 1323 1045 147 293 211 607 199 981 -7 209 -24 339 -68 520
-55 221 -94 329 -308 834 -85 200 -125 328 -146 470 -42 284 3 518 156 816 78
152 91 202 66 262 -29 70 -105 89 -354 89 -178 0 -281 -13 -438 -52 -572 -145
-1053 -613 -1243 -1210 -83 -260 -107 -438 -107 -799 0 -281 4 -330 52 -670
36 -253 37 -524 4 -680 -61 -287 -181 -531 -352 -714 -70 -75 -88 -88 -86 -63
5 48 -34 305 -74 492 -126 576 -402 1116 -788 1537 l-62 67 158 80 c355 182
575 333 784 541 159 158 239 266 259 349 10 44 10 55 -7 88 -10 21 -35 49 -55
62 l-37 24 47 31 c26 16 86 69 133 117 70 70 96 104 130 175 39 78 44 95 45
163 l2 75 40 12 c118 34 220 165 222 281 0 42 0 42 73 79 192 100 326 317 344
560 11 140 -18 212 -96 235 l-37 11 28 56 c121 245 142 637 42 770 -55 72
-134 81 -235 29 -116 -60 -628 -385 -809 -513 -63 -45 -116 -81 -117 -80 -2 2
8 79 22 172 77 532 54 1085 -66 1569 -94 379 -209 594 -345 644 -73 28 -201
27 -304 0z m202 -419 c46 -63 133 -387 167 -625 72 -502 30 -1039 -114 -1472
-30 -90 -55 -173 -55 -185 0 -12 31 -74 70 -138 81 -136 166 -311 240 -495
131 -325 220 -442 397 -522 74 -33 83 -40 83 -64 0 -36 -70 -139 -131 -192
-78 -68 -197 -135 -334 -187 -134 -51 -160 -67 -169 -106 -15 -60 23 -82 209
-123 76 -17 139 -32 141 -34 6 -6 -100 -129 -162 -189 -77 -74 -153 -133 -297
-230 -404 -271 -903 -475 -1452 -594 -99 -21 -141 -55 -131 -107 13 -70 78
-97 231 -97 142 0 322 35 509 100 l60 20 39 -26 c113 -75 306 -295 429 -490
175 -278 349 -704 427 -1044 62 -271 90 -570 72 -762 -15 -157 -33 -226 -66
-255 l-26 -23 -776 0 -775 0 8 33 c5 17 9 72 9 121 l0 89 84 38 c190 88 355
232 480 419 209 314 305 702 194 790 -34 27 -101 27 -135 0 -31 -24 -41 -47
-72 -182 -44 -184 -101 -318 -198 -460 -101 -148 -241 -268 -405 -345 -88 -42
-141 -47 -276 -25 -48 7 -178 12 -332 12 l-254 0 -6 44 c-5 28 -1 75 9 126 16
75 16 84 1 106 -12 19 -24 24 -57 24 -82 0 -158 -115 -158 -241 0 -55 -7 -59
-108 -59 -59 0 -63 2 -73 28 -6 15 -12 68 -12 117 -1 72 4 103 23 156 26 72
24 90 -14 114 -21 14 -31 15 -60 5 -80 -26 -134 -139 -143 -295 l-6 -99 -42
46 c-55 61 -79 136 -73 227 17 231 306 470 628 521 117 18 292 12 465 -16 249
-41 256 -41 285 -9 44 47 26 131 -36 171 -37 25 -179 70 -274 88 -46 9 -86 18
-88 21 -3 2 12 39 32 81 41 87 135 234 231 361 74 98 83 120 63 160 -18 37
-60 57 -106 48 -86 -15 -360 -366 -443 -565 -12 -30 -23 -56 -24 -58 -1 -1
-58 -9 -127 -17 -230 -27 -435 -112 -576 -240 l-41 -36 -29 63 c-76 161 -70
281 24 476 59 122 60 145 8 158 -101 25 -223 -110 -274 -304 l-17 -63 -36 40
c-39 43 -57 93 -57 156 0 138 128 391 284 563 36 40 67 80 67 90 2 33 -3 57
-15 70 -7 7 -112 38 -232 67 -289 71 -504 144 -504 170 0 7 -19 50 -41 95 -73
146 -219 265 -364 299 -27 6 -108 15 -180 20 -117 7 -139 11 -219 44 -101 41
-194 95 -283 161 -72 55 -233 221 -233 241 0 8 27 28 59 45 84 42 141 98 141
138 0 39 -15 53 -136 128 -113 70 -236 181 -301 271 l-47 66 30 21 c82 59 134
108 179 169 l50 66 12 -92 c40 -291 171 -526 385 -687 300 -227 686 -268 1034
-110 85 38 174 100 258 180 l72 68 34 -66 c69 -133 212 -251 326 -268 100 -15
211 54 309 191 58 81 75 122 75 179 0 83 -31 131 -110 171 -74 37 -154 48
-321 43 -135 -4 -149 -3 -143 11 32 76 66 195 81 288 18 111 18 112 53 129 92
44 295 25 416 -40 l58 -31 13 -90 c31 -218 147 -440 312 -598 206 -197 436
-288 727 -288 248 1 433 55 624 185 131 88 290 278 355 420 59 131 105 329
105 449 0 34 5 49 18 56 46 25 343 113 442 131 110 20 160 60 160 126 0 38
-29 81 -66 99 -41 19 -149 19 -251 0 -85 -16 -263 -69 -304 -91 l-27 -13 -27
77 c-115 324 -361 573 -668 678 -218 74 -490 71 -713 -9 -236 -85 -481 -320
-595 -573 -37 -80 -79 -216 -79 -253 0 -49 -13 -55 -59 -31 -63 32 -185 60
-260 60 -58 0 -146 -15 -206 -35 -18 -5 -23 4 -47 100 -64 251 -218 479 -413
615 -313 215 -747 222 -1064 16 -92 -60 -211 -174 -261 -251 -23 -36 -44 -65
-46 -65 -9 0 53 145 92 212 24 43 44 84 44 93 0 8 -13 70 -29 138 -35 143 -65
316 -83 477 -18 167 -16 553 6 730 53 450 194 850 298 850 38 0 173 -72 262
-139 182 -136 372 -351 504 -571 70 -115 164 -305 207 -415 35 -90 51 -115 75
-115 11 0 71 24 133 54 213 103 468 172 714 196 158 15 478 12 626 -5 248 -29
432 -77 651 -171 122 -52 129 -54 147 -38 11 9 19 22 19 27 0 17 101 235 153
332 208 384 523 716 853 901 158 88 248 105 286 54z m1458 -1730 c0 -65 -23
-178 -55 -270 -67 -194 -211 -355 -404 -450 -43 -21 -81 -46 -85 -55 -12 -33
-5 -67 20 -92 24 -24 30 -25 97 -20 75 6 184 40 325 101 46 20 88 36 94 36 18
0 0 -81 -34 -150 -20 -42 -55 -89 -97 -131 -89 -89 -143 -109 -309 -118 -130
-6 -142 -11 -142 -58 0 -28 49 -85 98 -114 52 -31 82 -60 82 -79 0 -21 -47
-66 -83 -79 -47 -18 -143 -13 -187 9 -84 43 -158 153 -215 320 -34 98 -92 236
-137 323 l-41 78 49 72 c70 103 202 230 334 322 144 101 670 416 681 409 5 -3
9 -27 9 -54z m-2840 -664 c202 -43 371 -159 488 -335 244 -365 198 -835 -110
-1126 -146 -138 -309 -204 -528 -212 -219 -9 -397 46 -557 171 -209 164 -328
470 -294 754 46 379 276 656 616 743 88 22 292 25 385 5z m-2555 -20 c125 -35
203 -82 305 -185 78 -78 105 -113 142 -187 69 -133 98 -244 105 -389 7 -168
-17 -280 -92 -431 -102 -205 -257 -337 -475 -405 -108 -34 -302 -34 -410 0
-219 68 -376 203 -470 405 -62 133 -74 190 -74 361 0 124 4 165 23 235 83 311
316 546 601 606 83 17 265 12 345 -10z m6625 -876 c0 -6 -18 -47 -41 -91 -163
-324 -187 -713 -68 -1084 35 -110 102 -273 208 -509 45 -99 80 -181 78 -182
-2 -2 -34 26 -72 62 -94 89 -267 218 -339 254 -70 36 -122 39 -160 9 -56 -44
-67 -89 -75 -322 l-6 -188 -100 67 c-55 36 -124 86 -152 111 -76 64 -177 195
-230 296 -52 101 -80 127 -135 127 -33 0 -45 -7 -79 -42 -76 -80 -219 -293
-283 -420 l-63 -126 -7 66 c-10 113 -6 361 9 482 51 429 218 799 479 1064 213
216 499 361 831 420 96 17 205 20 205 6z m-5575 -580 c18 -15 20 -61 3 -78
-17 -17 -69 -15 -95 3 -26 19 -38 62 -21 82 14 18 89 13 113 -7z m-1371 -1079
c67 -33 123 -87 156 -151 26 -51 64 -181 200 -685 67 -247 157 -580 200 -740
44 -159 120 -443 170 -630 93 -349 111 -395 167 -432 25 -17 83 -18 828 -23
612 -4 805 -8 822 -17 68 -39 83 -120 34 -175 l-29 -33 -779 0 -778 0 -55 26
c-30 14 -81 44 -113 66 -88 63 -178 95 -272 100 -44 2 -863 5 -1820 6 l-1740
3 -57 21 c-74 28 -135 70 -188 130 -74 84 -104 161 -183 458 -40 150 -239 863
-391 1400 -57 204 -109 397 -115 430 -24 138 47 247 179 275 28 6 753 8 1872
6 l1827 -3 65 -32z m5892 -178 c50 -87 205 -244 304 -308 97 -63 261 -140 328
-154 42 -9 59 -8 91 5 65 26 71 49 71 293 0 116 4 211 8 211 28 0 210 -161
311 -273 169 -189 248 -317 278 -452 19 -89 28 -352 14 -473 -42 -384 -200
-727 -456 -991 -174 -180 -298 -270 -508 -371 -328 -158 -604 -200 -1309 -200
-248 0 -318 3 -318 13 0 6 7 30 15 53 7 22 19 79 26 127 l12 85 86 58 c116 79
291 255 370 374 124 187 220 406 265 610 36 165 46 280 46 528 0 149 5 247 15
305 21 122 78 288 131 383 47 84 162 244 174 244 4 0 25 -30 46 -67z m-5198
-329 c50 -15 92 -30 92 -33 0 -3 -9 -19 -21 -36 -28 -41 -109 -205 -109 -222
0 -7 -3 -13 -8 -13 -4 0 -24 69 -46 153 -55 218 -53 199 -25 188 13 -5 66 -22
117 -37z m256 -1026 c8 -50 59 -148 99 -191 23 -25 27 -35 18 -47 -28 -39 -72
-134 -88 -190 -10 -37 -19 -56 -24 -48 -4 7 -30 106 -58 220 -28 114 -62 246
-76 294 -14 47 -25 90 -25 95 0 5 33 -14 74 -41 67 -46 74 -54 80 -92z"/>
<path d="M9923 8481 c-112 -51 -369 -456 -462 -728 -53 -156 -43 -185 99 -283
229 -156 355 -203 444 -166 45 19 66 52 66 103 0 49 -39 102 -91 123 l-30 13
39 41 c92 95 200 267 216 343 8 36 -13 87 -39 97 -60 23 -189 -26 -312 -118
-35 -25 -63 -43 -63 -40 0 8 89 167 163 288 122 203 144 283 91 325 -33 26
-67 26 -121 2z"/>
<path d="M5773 8364 c-22 -22 -25 -32 -21 -77 4 -45 18 -74 100 -207 78 -126
164 -281 187 -335 2 -5 -12 4 -32 22 -95 83 -240 146 -294 127 -95 -33 -52
-182 102 -353 l49 -53 -27 -20 c-34 -25 -82 -94 -91 -130 -10 -43 17 -96 58
-113 20 -8 46 -15 58 -15 40 0 121 46 202 114 44 36 112 91 151 121 106 81
112 105 71 267 -54 212 -155 409 -294 576 -84 101 -166 129 -219 76z"/>
<path d="M7963 4713 c-7 -2 -28 -38 -48 -78 -60 -126 -159 -185 -286 -171 -89
9 -133 31 -190 97 -46 53 -55 59 -89 59 -51 0 -90 -44 -90 -100 0 -46 -7 -52
-64 -52 -42 -1 -136 41 -136 61 0 4 -16 26 -36 49 -28 33 -42 42 -68 42 -41 0
-76 -35 -76 -76 0 -76 86 -185 179 -228 66 -30 206 -29 275 2 l48 22 62 -30
c118 -58 283 -60 401 -6 169 77 306 326 219 395 -25 20 -72 26 -101 14z"/>
<path d="M8593 6122 c-104 -37 -184 -112 -236 -224 -63 -135 -63 -321 0 -455
113 -243 419 -292 604 -96 214 227 167 629 -89 755 -84 42 -195 50 -279 20z
m189 -183 c11 -6 26 -26 34 -45 25 -60 -16 -124 -79 -124 -36 0 -75 36 -83 74
-6 35 15 90 38 99 23 9 69 7 90 -4z"/>
<path d="M6215 6121 c-115 -30 -211 -141 -250 -288 -24 -87 -21 -233 5 -318
61 -196 192 -307 364 -306 88 0 157 32 220 102 82 91 118 195 119 339 1 264
-153 466 -362 476 -36 2 -79 0 -96 -5z m196 -227 c41 -37 30 -113 -22 -139
-40 -21 -57 -19 -90 14 -40 40 -39 82 1 123 26 25 36 29 62 24 18 -3 39 -13
49 -22z"/>
<path d="M4205 2911 c-111 -29 -175 -112 -183 -237 -8 -132 52 -242 167 -301
82 -43 177 -46 256 -9 197 91 173 396 -41 522 -45 27 -145 39 -199 25z"/>
</g>
</svg>
