<?xml version="1.0" standalone="no"?>
<!DOCTYPE svg PUBLIC "-//W3C//DTD SVG 20010904//EN"
 "http://www.w3.org/TR/2001/REC-SVG-20010904/DTD/svg10.dtd">
<svg version="1.0" xmlns="http://www.w3.org/2000/svg"
 width="1536.000000pt" height="1024.000000pt" viewBox="0 0 1536.000000 1024.000000"
 preserveAspectRatio="xMidYMid meet">

<g transform="translate(0.000000,1024.000000) scale(0.100000,-0.100000)"
fill="#000000" stroke="none">
<path d="M4724 9645 c-40 -18 -86 -118 -147 -316 -95 -309 -138 -543 -158
-874 -32 -516 51 -954 276 -1460 l26 -60 -73 71 c-40 39 -92 85 -115 103 -63
48 -191 104 -358 156 -82 26 -202 65 -266 86 -64 21 -131 39 -150 39 -97 0
-132 -78 -110 -246 27 -208 85 -346 191 -458 l69 -72 -11 -45 c-13 -59 -3
-191 22 -271 48 -157 195 -281 393 -333 79 -20 141 -16 170 13 27 27 34 100
13 140 -16 31 -27 36 -121 58 -95 22 -209 113 -250 200 -22 46 -34 114 -20
114 2 0 39 -12 82 -26 102 -34 186 -30 220 11 27 31 29 76 5 124 -15 30 -26
36 -102 58 -47 13 -114 40 -150 60 -83 47 -187 150 -232 233 -34 60 -75 176
-66 185 5 5 339 -106 400 -133 125 -55 236 -148 309 -260 67 -102 94 -164 115
-260 15 -71 22 -85 42 -93 31 -12 84 -11 116 1 14 5 26 6 26 2 0 -22 -31 -40
-83 -50 -90 -18 -109 -30 -129 -87 -21 -59 -22 -75 -7 -126 8 -26 20 -41 37
-47 l24 -8 -37 -49 c-56 -75 -173 -191 -240 -240 -33 -23 -104 -66 -158 -95
-105 -56 -117 -70 -117 -139 0 -26 9 -50 28 -77 43 -58 177 -182 261 -242 l75
-52 -36 0 c-100 0 -137 -55 -108 -161 13 -47 144 -204 259 -309 269 -247 624
-459 988 -589 l101 -36 -94 -83 c-248 -218 -480 -549 -638 -911 -81 -185 -155
-439 -193 -668 -24 -144 -23 -403 1 -527 44 -224 154 -394 330 -510 133 -87
221 -121 417 -160 257 -52 365 -55 1849 -52 1422 3 1509 5 1714 47 96 19 231
66 312 107 l39 20 90 -24 c216 -58 473 -82 681 -65 412 35 722 168 964 411
306 308 420 657 375 1151 -22 252 -47 373 -125 614 -84 260 -107 487 -66 655
39 158 145 320 286 435 126 103 130 108 137 148 3 22 0 55 -7 77 -12 35 -20
42 -68 60 -149 56 -381 80 -579 61 -483 -47 -840 -284 -1091 -726 -123 -216
-203 -480 -232 -770 -11 -102 -10 -142 4 -270 9 -83 28 -197 42 -255 14 -58
33 -158 43 -222 16 -104 17 -129 5 -215 -7 -54 -21 -120 -33 -148 -20 -49 -20
-50 -20 -16 -1 18 -8 81 -17 140 -65 445 -293 979 -564 1322 -77 99 -244 270
-317 327 l-52 40 106 36 c377 131 732 343 1002 601 103 98 229 247 248 294 16
39 13 125 -5 143 -6 6 -36 16 -68 22 l-58 12 50 35 c119 87 274 242 294 293
15 40 12 88 -6 114 -8 12 -52 41 -97 63 -169 85 -293 186 -391 319 -45 61 -45
62 -26 78 43 36 34 176 -14 221 -16 15 -136 51 -170 51 -2 0 -6 9 -9 19 -4 17
-2 18 20 10 31 -12 85 -12 117 1 18 6 28 20 34 47 5 21 14 61 21 88 16 69 81
194 137 265 117 149 262 225 632 334 l53 15 -6 -32 c-4 -18 -20 -60 -35 -94
-89 -194 -246 -324 -453 -374 -36 -9 -51 -18 -58 -36 -12 -31 -12 -85 0 -116
20 -52 123 -59 246 -17 32 11 60 20 62 20 11 0 -1 -63 -21 -106 -50 -109 -155
-190 -282 -220 -63 -15 -78 -22 -90 -46 -15 -30 -17 -58 -8 -108 14 -67 118
-77 265 -24 41 15 85 34 99 42 56 35 133 108 166 156 62 92 98 269 75 375
l-11 53 66 71 c113 123 177 283 199 506 8 81 -6 149 -35 176 -39 35 -85 29
-290 -35 -107 -34 -230 -73 -272 -85 -177 -54 -310 -127 -410 -226 -56 -56
-57 -56 -41 -20 201 462 275 794 277 1246 1 302 -30 551 -104 845 -70 282
-150 501 -197 543 -29 25 -87 32 -136 16 -68 -21 -249 -134 -396 -244 -434
-329 -861 -823 -1168 -1353 -6 -10 -34 -6 -130 22 -202 58 -659 106 -868 91
-350 -25 -481 -44 -678 -101 -65 -19 -122 -34 -126 -34 -4 0 -24 30 -46 68
-62 107 -250 384 -333 490 -306 392 -663 733 -989 946 -171 112 -268 144 -339
111z m271 -344 c432 -300 942 -882 1242 -1416 40 -73 80 -104 134 -105 14 0
72 16 130 36 232 79 395 110 688 134 300 24 719 -31 994 -132 42 -15 97 -28
122 -28 51 0 51 0 127 135 203 363 540 786 858 1079 164 151 472 386 506 386
15 0 99 -248 139 -413 65 -267 101 -601 90 -822 -23 -476 -142 -849 -444
-1390 -33 -60 -64 -124 -67 -142 -7 -39 1 -99 26 -196 10 -39 18 -72 17 -73
-1 -1 -14 -5 -29 -9 -22 -6 -29 -2 -44 22 -168 272 -357 414 -640 479 -118 27
-350 25 -464 -3 -284 -72 -507 -248 -635 -503 -15 -30 -28 -56 -29 -57 -1 -1
-37 11 -79 28 -96 37 -259 63 -347 55 -91 -8 -208 -39 -279 -75 l-60 -29 -30
63 c-68 147 -201 300 -338 392 -366 243 -928 188 -1238 -122 -59 -59 -134
-160 -161 -218 -17 -34 -21 -37 -49 -31 -42 9 -45 12 -36 37 4 12 16 64 26
115 23 113 25 107 -96 332 -201 375 -293 617 -358 940 -29 142 -40 272 -43
510 -2 217 5 299 47 539 30 172 93 394 160 564 7 16 10 16 44 -5 20 -12 72
-46 116 -77z m1205 -2657 c86 -19 208 -80 295 -147 125 -96 227 -245 287 -420
29 -84 32 -103 32 -217 0 -109 -4 -135 -27 -205 -102 -306 -367 -534 -668
-577 -87 -12 -224 5 -320 42 -187 70 -370 235 -462 415 -57 114 -93 308 -74
400 30 140 43 180 87 270 84 171 192 282 360 369 173 90 310 109 490 70z
m2562 1 c229 -46 461 -242 568 -481 34 -75 47 -118 64 -221 41 -231 -97 -530
-324 -705 -167 -129 -341 -181 -529 -158 -169 21 -312 93 -448 223 -111 107
-183 223 -222 362 -18 60 -32 265 -21 300 5 17 17 61 26 100 52 208 212 405
414 509 172 89 291 107 472 71z m-3853 -105 l0 -35 -13 35 c-8 20 -16 51 -20
70 l-7 35 20 -35 c11 -19 20 -51 20 -70z m4847 20 c-12 -50 -13 -52 -18 -25
-4 19 0 40 10 57 9 15 17 26 18 25 1 -1 -3 -27 -10 -57z m-2292 -426 c32 -8
86 -29 119 -47 l61 -32 2 -180 c2 -233 24 -336 107 -501 111 -221 358 -413
612 -476 128 -32 401 -31 520 1 283 76 541 304 647 572 39 97 56 171 69 299 9
97 9 132 -5 223 -9 59 -16 114 -16 122 0 7 16 19 36 25 37 12 53 4 54 -25 0
-20 102 -189 160 -265 31 -41 87 -103 124 -137 65 -62 197 -156 236 -171 18
-7 10 -17 -67 -86 -48 -43 -122 -100 -163 -128 -81 -54 -324 -178 -349 -178
-35 -1 -71 -55 -71 -106 0 -39 28 -83 58 -91 35 -10 153 -10 267 0 l90 8 -75
-71 c-293 -277 -640 -477 -1070 -620 -113 -37 -217 -62 -371 -89 -62 -11 -119
-26 -126 -34 -18 -18 -27 -77 -19 -122 13 -68 100 -80 286 -40 l65 14 79 -57
c97 -69 286 -250 369 -352 276 -343 503 -864 563 -1297 38 -274 -22 -486 -183
-648 -96 -96 -208 -163 -332 -199 l-53 -16 6 23 c15 51 18 116 7 149 l-12 36
-85 7 -85 7 5 41 c3 23 10 89 16 147 18 179 31 284 35 306 3 14 25 30 72 51
86 39 134 50 255 58 113 8 129 19 135 92 3 36 -1 56 -16 80 -18 28 -26 32 -85
38 -75 8 -142 2 -253 -25 -43 -10 -79 -17 -81 -15 -2 1 2 49 8 106 6 57 20
194 31 304 26 244 29 393 10 458 -18 64 -79 131 -139 154 -45 17 -122 18
-1597 18 -1674 0 -1578 3 -1653 -52 -37 -28 -74 -96 -92 -170 -10 -43 -9 -78
4 -195 9 -79 27 -248 41 -377 15 -128 24 -235 22 -237 -2 -3 -35 3 -73 12 -73
17 -251 24 -296 11 -39 -10 -62 -59 -55 -116 7 -65 27 -77 139 -85 51 -4 116
-12 143 -18 67 -14 162 -56 170 -77 6 -15 64 -503 60 -508 -1 -2 -32 -6 -70
-10 -60 -7 -71 -11 -82 -33 -15 -30 -17 -92 -3 -139 5 -19 8 -36 7 -37 -1 -2
-43 11 -92 27 -193 65 -342 188 -424 351 -94 188 -96 415 -7 769 91 360 289
749 522 1030 88 106 277 285 361 343 l71 48 114 -22 c138 -27 197 -23 228 17
11 14 20 38 20 53 0 30 -24 95 -39 104 -5 3 -75 19 -156 36 -455 95 -908 304
-1250 579 -103 82 -209 181 -202 187 3 3 51 0 108 -6 111 -12 216 -6 244 14
22 16 31 122 13 155 -9 17 -42 36 -105 62 -112 45 -200 93 -313 170 -85 58
-219 174 -210 181 3 2 46 30 95 63 165 109 323 292 421 487 23 45 40 68 52 68
28 0 62 -12 57 -19 -2 -4 -12 -66 -21 -137 -14 -112 -15 -144 -4 -244 31 -286
143 -497 351 -664 319 -254 819 -288 1146 -77 219 142 374 348 433 576 29 112
45 295 33 379 l-10 67 56 33 c73 44 123 65 196 81 64 14 105 12 199 -11z
m3986 -1479 c5 -3 -12 -26 -36 -52 -97 -99 -184 -259 -225 -413 -20 -75 -23
-107 -23 -285 1 -237 11 -303 89 -555 58 -187 86 -292 81 -297 -7 -7 -180 203
-221 267 -35 54 -49 68 -75 74 -95 19 -139 -5 -180 -96 -17 -38 -38 -102 -47
-141 -8 -40 -18 -79 -20 -87 -3 -11 -16 -2 -45 30 -106 119 -184 275 -215 432
-9 44 -24 89 -32 100 -25 31 -98 35 -148 10 -64 -33 -195 -192 -278 -338 -40
-70 -45 -75 -46 -49 -1 17 -1 34 0 38 1 4 8 56 16 115 43 322 188 636 408 885
168 191 438 336 682 367 69 9 299 5 315 -5z m-1018 -1500 c64 -126 170 -255
283 -345 86 -68 120 -83 172 -77 61 7 81 28 88 96 11 98 28 206 34 218 6 12
122 -112 208 -222 56 -71 124 -206 138 -273 29 -139 -36 -352 -167 -549 -117
-175 -330 -346 -544 -436 -139 -58 -240 -82 -424 -100 -122 -12 -166 -12 -275
-1 -71 8 -163 21 -203 30 l-73 15 29 37 c47 60 80 117 108 186 18 46 43 83 91
132 211 222 279 486 218 856 -13 82 -13 84 16 170 40 122 121 280 200 388 l32
44 17 -49 c10 -28 33 -81 52 -120z m-1610 78 c41 -39 45 -71 31 -212 -7 -69
-38 -369 -68 -666 -62 -606 -64 -628 -71 -671 l-4 -31 -689 -8 c-379 -4 -1002
-4 -1384 0 l-695 8 -6 29 c-7 35 -92 783 -136 1193 -34 315 -33 329 17 362 24
16 64 19 408 24 209 3 873 4 1475 2 l1094 -3 28 -27z m-412 -1792 l415 -6 -33
-21 c-22 -14 -57 -23 -100 -27 -151 -13 -1602 -16 -2328 -6 -438 7 -440 7
-485 30 l-44 24 370 5 c536 8 1723 8 2205 1z"/>
<path d="M5093 8684 c-18 -7 -37 -22 -42 -32 -17 -32 -59 -213 -77 -332 -24
-156 -24 -472 0 -628 32 -215 108 -435 210 -616 73 -128 101 -157 156 -163 89
-10 109 3 165 102 28 50 68 117 89 150 53 81 273 298 366 361 41 28 81 62 87
75 34 66 3 157 -119 337 -149 223 -288 392 -445 543 -211 203 -294 246 -390
203z m245 -391 c153 -152 297 -329 415 -514 l55 -86 -57 -41 c-122 -86 -301
-276 -367 -389 -10 -18 -21 -33 -25 -33 -8 0 -78 158 -113 258 -14 40 -35 118
-47 175 -25 123 -44 443 -30 502 5 22 14 72 21 110 19 115 21 125 30 125 5 0
58 -48 118 -107z"/>
<path d="M9381 8668 c-53 -25 -96 -62 -232 -197 -92 -91 -204 -213 -250 -271
-159 -202 -319 -470 -319 -536 0 -49 33 -88 134 -158 179 -125 333 -301 429
-492 19 -38 43 -76 51 -84 22 -17 104 -24 138 -11 86 33 250 394 308 679 32
158 45 407 31 582 -14 162 -41 334 -69 425 -15 50 -23 63 -52 77 -50 26 -96
22 -169 -14z m63 -375 c31 -202 34 -261 20 -416 -20 -217 -54 -353 -134 -546
-37 -88 -46 -101 -54 -86 -6 10 -43 61 -82 114 -74 101 -193 220 -293 292 -33
24 -61 47 -61 50 0 14 165 255 242 351 91 114 315 348 333 348 8 0 19 -40 29
-107z"/>
<path d="M5887 6354 c-43 -7 -94 -18 -115 -25 -113 -36 -262 -142 -288 -206
-17 -38 -18 -97 -4 -124 13 -24 61 -49 95 -49 36 0 60 14 127 74 31 28 74 62
97 74 l40 23 -25 -44 c-86 -155 -81 -412 11 -533 39 -51 120 -101 195 -120 76
-19 217 -14 276 11 81 33 160 120 186 202 12 39 13 40 41 31 32 -12 114 -5
129 10 5 5 12 36 15 68 5 68 -30 205 -74 286 -69 127 -203 245 -330 289 -61
22 -218 49 -268 48 -16 -1 -65 -7 -108 -15z m378 -405 c13 -24 12 -30 -6 -53
-25 -32 -40 -33 -75 -2 -26 21 -27 25 -15 53 15 36 49 56 69 40 7 -6 20 -23
27 -38z"/>
<path d="M8510 6349 c-259 -53 -436 -218 -500 -469 -23 -88 -24 -180 -3 -201
17 -17 97 -23 132 -11 30 10 30 10 46 -38 20 -61 87 -137 152 -172 64 -35 158
-52 243 -45 115 10 148 24 221 97 58 57 70 75 88 134 44 141 34 290 -25 409
-14 26 -20 47 -16 47 13 0 60 -36 115 -89 47 -45 49 -46 112 -46 77 0 95 14
102 78 7 57 -16 96 -95 167 -83 74 -195 126 -312 145 -117 18 -141 18 -260 -6z
m9 -359 c10 -5 24 -23 31 -40 12 -29 11 -33 -15 -60 -28 -29 -28 -29 -57 -12
-55 32 -57 70 -6 106 26 19 25 19 47 6z"/>
<path d="M7210 5370 c-112 -19 -207 -63 -244 -113 -31 -42 -29 -168 2 -219 28
-46 120 -131 189 -175 61 -39 73 -57 73 -112 0 -66 -70 -131 -142 -131 -46 0
-129 41 -182 90 -51 47 -105 61 -157 40 -34 -14 -49 -44 -49 -96 0 -60 24
-100 90 -148 98 -73 154 -90 295 -90 116 -1 123 0 186 31 l65 32 49 -24 c71
-35 155 -48 259 -41 134 9 247 69 306 163 60 94 20 183 -81 183 -39 0 -64 -13
-117 -62 -82 -75 -160 -95 -230 -59 -58 30 -79 59 -84 119 l-5 52 50 31 c122
75 215 181 238 271 24 90 -26 175 -129 221 -92 42 -260 58 -382 37z"/>
<path d="M7237 2689 c-117 -28 -174 -90 -206 -230 -17 -70 -2 -174 34 -235 51
-87 164 -132 307 -121 157 12 238 92 254 251 17 167 -65 307 -197 335 -58 13
-138 13 -192 0z m152 -234 c41 -48 40 -79 -5 -121 -42 -40 -51 -41 -94 -11
-56 38 -63 56 -39 104 35 71 90 82 138 28z"/>
</g>
</svg>
