<?xml version="1.0" standalone="no"?>
<!DOCTYPE svg PUBLIC "-//W3C//DTD SVG 20010904//EN"
 "http://www.w3.org/TR/2001/REC-SVG-20010904/DTD/svg10.dtd">
<svg version="1.0" xmlns="http://www.w3.org/2000/svg"
 width="1024.000000pt" height="1024.000000pt" viewBox="0 0 1024.000000 1024.000000"
 preserveAspectRatio="xMidYMid meet">

<g transform="translate(0.000000,1024.000000) scale(0.100000,-0.100000)"
fill="#000000" stroke="none">
<path d="M2765 9566 c-33 -8 -73 -19 -88 -25 -46 -18 -158 -94 -202 -137 -223
-218 -430 -698 -531 -1229 -44 -233 -58 -390 -58 -675 -1 -268 11 -417 50
-605 40 -195 133 -456 219 -611 l33 -62 -39 -123 c-37 -116 -79 -259 -93 -320
-5 -23 -13 -28 -53 -34 -178 -27 -283 -127 -283 -270 0 -78 28 -139 86 -190
42 -37 46 -45 55 -109 6 -38 9 -99 7 -135 -7 -131 -94 -244 -249 -321 -43 -22
-85 -50 -93 -62 -63 -90 86 -362 290 -528 37 -30 79 -65 93 -76 l25 -22 -32
-36 c-63 -72 -34 -145 112 -283 267 -252 667 -480 1084 -618 79 -26 141 -49
139 -52 -6 -6 -287 17 -1142 92 -154 13 -365 31 -470 40 -104 8 -244 20 -310
26 -66 6 -172 11 -235 12 -105 1 -120 -1 -172 -25 -41 -19 -64 -38 -85 -69
-26 -40 -28 -49 -27 -138 2 -100 9 -135 340 -1561 96 -412 122 -478 220 -552
79 -60 127 -72 569 -143 186 -30 1024 -151 1619 -235 578 -81 653 -85 806 -45
108 29 411 130 525 175 41 16 77 30 79 30 3 0 8 -15 11 -33 17 -77 67 -142
135 -177 48 -24 197 -58 305 -70 135 -15 446 -12 613 5 325 34 568 105 738
216 72 47 168 134 211 191 20 26 22 27 50 13 41 -20 222 -62 323 -75 207 -25
491 -5 697 50 395 104 692 318 899 647 105 167 168 325 220 548 25 110 28 138
28 325 1 232 -10 303 -89 600 -61 228 -79 335 -71 440 12 186 70 331 185 467
112 132 116 190 18 234 -45 20 -73 24 -201 27 -176 5 -260 -6 -406 -55 -249
-83 -485 -231 -699 -438 -272 -263 -435 -523 -515 -823 -23 -87 -36 -170 -71
-477 -19 -162 -45 -268 -90 -364 -30 -63 -93 -149 -116 -159 -3 -2 -12 34 -18
80 -16 108 -70 319 -127 488 -73 218 -222 510 -346 678 -22 30 -37 56 -34 59
3 3 62 25 131 49 170 58 291 111 470 203 385 198 748 479 827 639 30 60 31 66
17 91 -8 14 -37 38 -64 52 -27 14 -50 30 -52 35 -2 6 18 20 44 33 324 157 685
593 610 737 -25 48 -48 62 -163 99 -133 42 -219 91 -299 170 -147 146 -216
304 -325 742 l-43 172 51 123 c100 246 184 544 222 795 125 820 -62 1921 -404
2373 -72 95 -142 152 -231 189 -191 78 -475 -23 -810 -290 -286 -227 -650
-629 -867 -959 -50 -75 -172 -288 -181 -314 -2 -6 -41 -3 -103 7 -194 33 -313
39 -584 34 -218 -5 -288 -10 -393 -30 -88 -16 -130 -20 -136 -13 -4 6 -22 47
-40 91 -42 104 -154 317 -249 475 -312 521 -685 894 -998 999 -81 26 -194 34
-269 17z m198 -191 c127 -33 237 -107 413 -278 197 -190 379 -423 535 -684 91
-153 204 -373 249 -488 50 -127 75 -145 173 -119 313 81 831 80 1155 -2 104
-26 104 -26 130 -7 15 11 57 77 95 149 314 595 1028 1318 1411 1429 197 57
357 -53 492 -339 107 -227 206 -599 248 -931 41 -329 46 -742 11 -1014 -44
-342 -141 -686 -260 -920 -14 -28 -25 -67 -25 -87 0 -46 127 -510 176 -641 86
-233 204 -391 377 -506 67 -44 192 -105 237 -113 37 -8 37 -18 0 -89 -126
-240 -423 -457 -724 -532 -106 -26 -126 -39 -126 -84 0 -40 33 -61 152 -99
141 -44 161 -55 148 -81 -6 -11 -61 -62 -122 -114 -329 -282 -753 -502 -1268
-660 -254 -78 -269 -84 -287 -112 -22 -33 -8 -73 31 -92 29 -13 67 -9 212 26
68 16 257 -275 391 -601 142 -345 216 -672 217 -956 0 -177 -18 -269 -79 -397
-110 -234 -275 -354 -593 -433 -221 -54 -329 -65 -642 -65 -300 1 -430 14
-510 53 -31 15 -35 22 -38 58 -3 38 1 45 34 72 21 17 98 59 173 93 333 153
389 195 416 317 4 22 13 33 28 36 12 3 65 12 117 22 97 17 203 51 275 87 245
122 431 378 475 650 14 88 6 122 -32 136 -47 17 -65 -5 -104 -123 -80 -242
-170 -367 -346 -480 -110 -70 -222 -102 -398 -115 -74 -6 -147 -18 -205 -35
-105 -32 -234 -53 -259 -43 -31 12 -11 98 52 219 2 4 -8 19 -22 33 -32 32 -56
27 -104 -19 -41 -37 -68 -88 -77 -141 -13 -75 -12 -75 -64 -75 -71 0 -148 26
-157 53 -23 68 2 176 62 269 27 41 10 82 -35 86 -27 3 -39 -3 -72 -38 -21 -22
-48 -58 -58 -79 -24 -46 -51 -148 -51 -191 0 -30 -2 -32 -26 -26 -37 10 -70
36 -90 72 -29 52 -16 173 26 254 97 185 295 290 605 320 188 19 288 50 388
123 88 63 165 186 190 302 9 47 9 61 -4 83 -12 22 -22 27 -54 27 -43 0 -39 5
-95 -117 -17 -37 -53 -91 -79 -120 -84 -92 -155 -116 -430 -148 -239 -27 -465
-132 -586 -272 -20 -24 -55 -79 -77 -123 -22 -44 -42 -82 -43 -83 -5 -6 -296
28 -336 39 -21 5 -40 17 -43 26 -4 10 -27 130 -51 268 -84 475 -125 700 -135
735 -18 63 -13 108 15 126 21 14 36 15 92 6 46 -6 75 -6 91 1 26 12 40 53 25
76 -24 38 -66 53 -268 95 -753 158 -1205 339 -1626 652 -119 88 -225 187 -216
201 4 6 30 13 58 17 55 8 99 40 99 74 0 29 -26 54 -110 105 -150 91 -295 234
-382 379 -21 34 -38 71 -38 82 0 15 20 33 68 63 37 23 95 66 129 97 l61 56 36
-113 c126 -400 362 -646 738 -766 143 -45 254 -62 408 -62 407 0 714 165 892
481 58 103 113 270 137 418 14 84 23 116 37 127 27 20 119 55 178 66 165 31
403 -16 472 -93 27 -30 38 -62 64 -187 75 -362 274 -626 575 -761 241 -108
605 -138 915 -74 380 79 655 361 785 808 13 47 40 183 60 303 38 233 46 255
104 285 74 37 101 85 101 178 0 137 -64 203 -257 264 -310 97 -826 139 -1187
95 -137 -16 -285 -49 -428 -95 -324 -105 -524 -255 -630 -472 -36 -73 -43 -83
-62 -77 -186 55 -208 58 -386 59 -144 1 -185 -2 -235 -18 -76 -23 -115 -25
-125 -6 -4 8 -28 58 -53 110 -164 344 -555 533 -1202 579 -132 10 -343 5 -475
-9 -47 -6 -104 -10 -128 -10 -50 0 -50 -14 5 170 141 472 452 995 728 1223
103 86 106 102 30 218 -32 48 -64 112 -75 150 -20 68 -27 154 -12 163 19 11
248 -149 312 -219 53 -57 67 -58 161 -15 50 23 89 48 97 62 17 30 10 106 -24
257 -105 470 -337 900 -588 1087 -49 37 -65 44 -105 44 -56 0 -71 -12 -71 -57
0 -25 8 -40 38 -65 68 -59 165 -162 210 -223 147 -200 299 -550 363 -835 28
-126 27 -130 -23 -83 -90 82 -234 172 -325 204 -71 24 -98 24 -138 -1 -44 -27
-65 -90 -65 -189 0 -98 21 -183 67 -279 20 -42 37 -80 37 -84 1 -4 -46 -56
-104 -115 -169 -175 -297 -364 -458 -680 -31 -62 -60 -113 -63 -113 -11 0 -80
161 -115 268 -77 235 -109 471 -108 807 0 252 10 367 50 605 107 637 385 1183
649 1278 44 15 142 14 208 -3z m134 -3800 c305 -40 555 -140 699 -280 124
-121 174 -294 153 -540 -31 -382 -216 -618 -554 -706 -217 -56 -531 -27 -756
71 -193 83 -314 203 -408 401 -77 160 -111 330 -111 544 0 260 51 365 214 443
61 29 197 67 266 75 97 11 389 6 497 -8z m3333 -56 c296 -27 467 -110 539
-262 39 -84 51 -148 51 -281 0 -315 -122 -646 -296 -805 -188 -172 -511 -244
-866 -195 -262 36 -459 137 -582 297 -113 148 -176 336 -176 527 0 195 48 320
166 437 155 154 459 259 824 286 103 8 232 6 340 -4z m2633 -1625 c3 -3 -11
-27 -30 -52 -50 -65 -119 -212 -144 -307 -18 -65 -22 -108 -22 -235 -1 -172 5
-206 78 -460 68 -240 79 -315 79 -540 0 -217 -16 -319 -75 -487 -174 -495
-527 -800 -1060 -914 -140 -31 -484 -33 -624 -5 -139 27 -195 45 -195 63 0 8
14 54 31 101 36 103 59 250 59 383 l0 97 71 68 c169 162 227 319 275 734 13
118 31 250 40 293 113 562 680 1129 1249 1250 69 15 256 23 268 11z"/>
<path d="M7137 8895 c-254 -131 -601 -574 -782 -999 -80 -189 -110 -319 -85
-367 13 -24 200 -119 234 -119 16 0 53 24 106 70 130 112 224 169 279 170 24
0 24 -1 18 -77 -6 -91 -32 -164 -87 -243 -29 -40 -40 -66 -40 -92 0 -32 8 -43
72 -99 126 -112 312 -351 408 -524 44 -79 68 -105 99 -105 35 0 48 10 61 44
32 86 -156 398 -379 629 l-75 78 32 64 c63 128 78 308 34 407 -26 58 -53 79
-105 85 -81 9 -174 -35 -392 -186 -119 -83 -123 -79 -74 61 144 419 459 877
739 1073 95 66 110 98 64 134 -35 27 -68 26 -127 -4z"/>
<path d="M3230 6059 c-71 -6 -104 -19 -120 -49 -30 -56 2 -85 105 -95 134 -12
298 -70 416 -145 53 -35 79 -37 102 -12 30 33 21 69 -32 125 -116 122 -301
191 -471 176z"/>
<path d="M5795 6014 c-148 -31 -342 -154 -361 -228 -6 -24 -3 -33 16 -48 31
-25 51 -23 130 17 154 78 308 114 486 115 94 0 113 3 127 18 43 47 5 104 -84
127 -69 19 -223 18 -314 -1z"/>
<path d="M4280 4212 c-20 -9 -44 -33 -54 -53 -29 -53 -12 -102 66 -184 93
-100 156 -107 261 -30 108 80 137 167 74 230 -43 43 -90 55 -212 55 -75 0
-109 -4 -135 -18z"/>
<path d="M4983 3782 c-10 -11 -35 -40 -56 -66 -73 -89 -162 -125 -260 -104
-48 10 -85 39 -149 116 -39 48 -68 43 -112 -18 -80 -112 -180 -121 -265 -25
-17 20 -31 39 -31 44 0 18 -51 61 -73 61 -30 0 -57 -29 -57 -61 0 -36 47 -126
88 -166 19 -20 60 -47 90 -61 74 -34 150 -28 245 19 l68 34 32 -19 c104 -62
174 -79 276 -65 158 22 301 144 301 257 0 64 -58 95 -97 54z"/>
<path d="M2430 5312 c-70 -22 -44 -143 47 -220 l50 -41 6 -95 c10 -171 96
-369 190 -437 49 -35 65 -36 73 -5 4 16 -6 47 -31 96 -56 111 -66 153 -72 296
-5 123 -4 133 13 142 24 13 158 32 221 32 45 0 45 -1 40 -28 -3 -16 -11 -68
-17 -116 -21 -157 19 -364 92 -478 42 -66 136 -151 205 -185 79 -39 201 -45
284 -14 99 37 175 122 216 240 11 32 29 61 46 73 25 18 27 24 27 96 0 461
-522 733 -1131 591 -81 -19 -89 -19 -125 -4 -21 9 -45 22 -54 30 -21 19 -62
33 -80 27z m1100 -377 c30 -32 34 -103 6 -134 -44 -48 -116 -5 -116 69 0 30 6
47 25 65 31 32 55 32 85 0z"/>
<path d="M6015 5230 c-387 -35 -683 -299 -720 -641 -6 -56 -4 -68 13 -89 26
-33 43 -19 72 63 13 34 35 80 49 102 l26 40 6 -90 c6 -108 29 -183 78 -256 78
-116 206 -176 357 -166 120 7 194 44 293 145 85 86 131 168 158 280 17 72 23
249 10 320 -9 50 2 53 73 21 83 -37 90 -50 90 -154 0 -104 -16 -176 -65 -290
-19 -45 -35 -91 -35 -102 0 -20 3 -21 30 -12 100 35 193 220 207 411 l6 77 53
16 c55 16 74 36 74 77 0 34 -18 48 -62 48 -21 0 -38 3 -38 6 0 4 15 25 33 48
40 48 51 85 37 120 -8 21 -16 26 -44 26 -28 0 -47 -10 -86 -45 -28 -25 -54
-45 -59 -45 -5 0 -39 11 -76 25 -154 58 -314 80 -480 65z m90 -254 c14 -10 20
-30 23 -79 4 -56 1 -68 -17 -86 -27 -27 -82 -28 -105 -2 -26 29 -31 91 -12
130 25 47 75 64 111 37z"/>
</g>
</svg>
